# xmcd
#
# Track frame offsets:
#	150
#	10693
#	20924
#	32940
#	45415
#	57075
#	69959
#	76153
#	87323
#	97609
#	109284
#	121665
#	134220
#	143350
#	156342
#
# Disc length: 2330 seconds
#
# Revision: 1
# Processed by: cddbd v1.5.2PL0 Copyright (c) Steve Scherf et al.
# Submitted via: audiograbber 1.83.01
#
DISCID=b809180f
DTITLE=Various Artist - Country Legends CD3 Blame It On The Times
DYEAR=2005
DGENRE=Country
TTITLE0=Willie Nelson - Blame It On The Times
TTITLE1=Leroy Van Dyke - Walk On By
TTITLE2=Dolly Parton - Letter To Heaven
TTITLE3=Charley Pride - Help Me Make It Through The Night
TTITLE4=Freddy Fender - I'm Leaving It All Up To You
TTITLE5=Rita Remington - Sentimental Journey
TTITLE6=Jim Reeves - Have I Told You Lately That I Love You
TTITLE7=Jerry Wallace - Primrose Lane
TTITLE8=Patsy Cline - Three Cigarettes In An Ashtray
TTITLE9=Conway Twitty (aka Harold Jenkins) - Turn The Other Cheek
TTITLE10=Hank Williams - My Sweet Love Ain't Around
TTITLE11=Lynn Anderson - Standy By Your Man
TTITLE12=Buck Owens - Rhythm And Booze
TTITLE13=Gene Autry - Lonely River
TTITLE14=Tina Turner - Lovin' Him Was Easier
EXTD=
EXTT0=
EXTT1=
EXTT2=
EXTT3=
EXTT4=
EXTT5=
EXTT6=
EXTT7=
EXTT8=
EXTT9=
EXTT10=
EXTT11=
EXTT12=
EXTT13=
EXTT14=
PLAYORDER=
